<?xml version="1.0" encoding="utf-8"?>
<svg xmlns="http://www.w3.org/2000/svg" xmlns:xlink="http://www.w3.org/1999/xlink" style="margin: auto; background: none; display: block; shape-rendering: auto;" width="98px" height="98px" viewBox="0 0 100 100" preserveAspectRatio="xMidYMid">
<g transform="rotate(0 50 50)">
  <rect x="46.5" y="21" rx="0" ry="0" width="7" height="16" fill="#1d3f72">
    <animate attributeName="opacity" values="1;0" keyTimes="0;1" dur="0.4385964912280702s" begin="-0.402046783625731s" repeatCount="indefinite"></animate>
  </rect>
</g><g transform="rotate(30 50 50)">
  <rect x="46.5" y="21" rx="0" ry="0" width="7" height="16" fill="#1d3f72">
    <animate attributeName="opacity" values="1;0" keyTimes="0;1" dur="0.4385964912280702s" begin="-0.3654970760233918s" repeatCount="indefinite"></animate>
  </rect>
</g><g transform="rotate(60 50 50)">
  <rect x="46.5" y="21" rx="0" ry="0" width="7" height="16" fill="#1d3f72">
    <animate attributeName="opacity" values="1;0" keyTimes="0;1" dur="0.4385964912280702s" begin="-0.32894736842105265s" repeatCount="indefinite"></animate>
  </rect>
</g><g transform="rotate(90 50 50)">
  <rect x="46.5" y="21" rx="0" ry="0" width="7" height="16" fill="#1d3f72">
    <animate attributeName="opacity" values="1;0" keyTimes="0;1" dur="0.4385964912280702s" begin="-0.29239766081871343s" repeatCount="indefinite"></animate>
  </rect>
</g><g transform="rotate(120 50 50)">
  <rect x="46.5" y="21" rx="0" ry="0" width="7" height="16" fill="#1d3f72">
    <animate attributeName="opacity" values="1;0" keyTimes="0;1" dur="0.4385964912280702s" begin="-0.25584795321637427s" repeatCount="indefinite"></animate>
  </rect>
</g><g transform="rotate(150 50 50)">
  <rect x="46.5" y="21" rx="0" ry="0" width="7" height="16" fill="#1d3f72">
    <animate attributeName="opacity" values="1;0" keyTimes="0;1" dur="0.4385964912280702s" begin="-0.2192982456140351s" repeatCount="indefinite"></animate>
  </rect>
</g><g transform="rotate(180 50 50)">
  <rect x="46.5" y="21" rx="0" ry="0" width="7" height="16" fill="#1d3f72">
    <animate attributeName="opacity" values="1;0" keyTimes="0;1" dur="0.4385964912280702s" begin="-0.1827485380116959s" repeatCount="indefinite"></animate>
  </rect>
</g><g transform="rotate(210 50 50)">
  <rect x="46.5" y="21" rx="0" ry="0" width="7" height="16" fill="#1d3f72">
    <animate attributeName="opacity" values="1;0" keyTimes="0;1" dur="0.4385964912280702s" begin="-0.14619883040935672s" repeatCount="indefinite"></animate>
  </rect>
</g><g transform="rotate(240 50 50)">
  <rect x="46.5" y="21" rx="0" ry="0" width="7" height="16" fill="#1d3f72">
    <animate attributeName="opacity" values="1;0" keyTimes="0;1" dur="0.4385964912280702s" begin="-0.10964912280701755s" repeatCount="indefinite"></animate>
  </rect>
</g><g transform="rotate(270 50 50)">
  <rect x="46.5" y="21" rx="0" ry="0" width="7" height="16" fill="#1d3f72">
    <animate attributeName="opacity" values="1;0" keyTimes="0;1" dur="0.4385964912280702s" begin="-0.07309941520467836s" repeatCount="indefinite"></animate>
  </rect>
</g><g transform="rotate(300 50 50)">
  <rect x="46.5" y="21" rx="0" ry="0" width="7" height="16" fill="#1d3f72">
    <animate attributeName="opacity" values="1;0" keyTimes="0;1" dur="0.4385964912280702s" begin="-0.03654970760233918s" repeatCount="indefinite"></animate>
  </rect>
</g><g transform="rotate(330 50 50)">
  <rect x="46.5" y="21" rx="0" ry="0" width="7" height="16" fill="#1d3f72">
    <animate attributeName="opacity" values="1;0" keyTimes="0;1" dur="0.4385964912280702s" begin="0s" repeatCount="indefinite"></animate>
  </rect>
</g>
<!-- [ldio] generated by https://loading.io/ --></svg>